<svg id="visual" viewBox="0 0 1920 1080" width="1920" height="1080" xmlns="http://www.w3.org/2000/svg" xmlns:xlink="http://www.w3.org/1999/xlink" version="1.1"><rect x="0" y="0" width="1920" height="1080" fill="#badcf6"></rect><path d="M0 490L32 487.2C64 484.3 128 478.7 192 475.8C256 473 320 473 384 489.8C448 506.7 512 540.3 576 537.2C640 534 704 494 768 473.2C832 452.3 896 450.7 960 467.2C1024 483.7 1088 518.3 1152 529.3C1216 540.3 1280 527.7 1344 505.8C1408 484 1472 453 1536 453.7C1600 454.3 1664 486.7 1728 491.5C1792 496.3 1856 473.7 1888 462.3L1920 451L1920 1081L1888 1081C1856 1081 1792 1081 1728 1081C1664 1081 1600 1081 1536 1081C1472 1081 1408 1081 1344 1081C1280 1081 1216 1081 1152 1081C1088 1081 1024 1081 960 1081C896 1081 832 1081 768 1081C704 1081 640 1081 576 1081C512 1081 448 1081 384 1081C320 1081 256 1081 192 1081C128 1081 64 1081 32 1081L0 1081Z" fill="#31b3f4"></path><path d="M0 650L32 635C64 620 128 590 192 575.5C256 561 320 562 384 554.3C448 546.7 512 530.3 576 540.2C640 550 704 586 768 605.3C832 624.7 896 627.3 960 614.2C1024 601 1088 572 1152 572C1216 572 1280 601 1344 633.8C1408 666.7 1472 703.3 1536 708.2C1600 713 1664 686 1728 681.7C1792 677.3 1856 695.7 1888 704.8L1920 714L1920 1081L1888 1081C1856 1081 1792 1081 1728 1081C1664 1081 1600 1081 1536 1081C1472 1081 1408 1081 1344 1081C1280 1081 1216 1081 1152 1081C1088 1081 1024 1081 960 1081C896 1081 832 1081 768 1081C704 1081 640 1081 576 1081C512 1081 448 1081 384 1081C320 1081 256 1081 192 1081C128 1081 64 1081 32 1081L0 1081Z" fill="#21aef7"></path><path d="M0 585L32 596.5C64 608 128 631 192 660.5C256 690 320 726 384 738.8C448 751.7 512 741.3 576 718C640 694.7 704 658.3 768 632C832 605.7 896 589.3 960 586.8C1024 584.3 1088 595.7 1152 623.3C1216 651 1280 695 1344 715.8C1408 736.7 1472 734.3 1536 721C1600 707.7 1664 683.3 1728 665.7C1792 648 1856 637 1888 631.5L1920 626L1920 1081L1888 1081C1856 1081 1792 1081 1728 1081C1664 1081 1600 1081 1536 1081C1472 1081 1408 1081 1344 1081C1280 1081 1216 1081 1152 1081C1088 1081 1024 1081 960 1081C896 1081 832 1081 768 1081C704 1081 640 1081 576 1081C512 1081 448 1081 384 1081C320 1081 256 1081 192 1081C128 1081 64 1081 32 1081L0 1081Z" fill="#11a9f9"></path><path d="M0 842L32 813.7C64 785.3 128 728.7 192 727.8C256 727 320 782 384 794C448 806 512 775 576 744.2C640 713.3 704 682.7 768 669C832 655.3 896 658.7 960 660.7C1024 662.7 1088 663.3 1152 662.8C1216 662.3 1280 660.7 1344 675C1408 689.3 1472 719.7 1536 721.5C1600 723.3 1664 696.7 1728 708.2C1792 719.7 1856 769.3 1888 794.2L1920 819L1920 1081L1888 1081C1856 1081 1792 1081 1728 1081C1664 1081 1600 1081 1536 1081C1472 1081 1408 1081 1344 1081C1280 1081 1216 1081 1152 1081C1088 1081 1024 1081 960 1081C896 1081 832 1081 768 1081C704 1081 640 1081 576 1081C512 1081 448 1081 384 1081C320 1081 256 1081 192 1081C128 1081 64 1081 32 1081L0 1081Z" fill="#02a4fb"></path><path d="M0 807L32 796.2C64 785.3 128 763.7 192 770.8C256 778 320 814 384 831.8C448 849.7 512 849.3 576 846.8C640 844.3 704 839.7 768 821C832 802.3 896 769.7 960 774.2C1024 778.7 1088 820.3 1152 828.3C1216 836.3 1280 810.7 1344 810.2C1408 809.7 1472 834.3 1536 841.3C1600 848.3 1664 837.7 1728 829.3C1792 821 1856 815 1888 812L1920 809L1920 1081L1888 1081C1856 1081 1792 1081 1728 1081C1664 1081 1600 1081 1536 1081C1472 1081 1408 1081 1344 1081C1280 1081 1216 1081 1152 1081C1088 1081 1024 1081 960 1081C896 1081 832 1081 768 1081C704 1081 640 1081 576 1081C512 1081 448 1081 384 1081C320 1081 256 1081 192 1081C128 1081 64 1081 32 1081L0 1081Z" fill="#009efd"></path><path d="M0 881L32 871.7C64 862.3 128 843.7 192 832C256 820.3 320 815.7 384 812.2C448 808.7 512 806.3 576 814.8C640 823.3 704 842.7 768 861.8C832 881 896 900 960 911.5C1024 923 1088 927 1152 927.7C1216 928.3 1280 925.7 1344 923.2C1408 920.7 1472 918.3 1536 903.7C1600 889 1664 862 1728 866C1792 870 1856 905 1888 922.5L1920 940L1920 1081L1888 1081C1856 1081 1792 1081 1728 1081C1664 1081 1600 1081 1536 1081C1472 1081 1408 1081 1344 1081C1280 1081 1216 1081 1152 1081C1088 1081 1024 1081 960 1081C896 1081 832 1081 768 1081C704 1081 640 1081 576 1081C512 1081 448 1081 384 1081C320 1081 256 1081 192 1081C128 1081 64 1081 32 1081L0 1081Z" fill="#0098fe"></path><path d="M0 906L32 908.3C64 910.7 128 915.3 192 921.3C256 927.3 320 934.7 384 926.7C448 918.7 512 895.3 576 898.5C640 901.7 704 931.3 768 950.5C832 969.7 896 978.3 960 972.2C1024 966 1088 945 1152 937.5C1216 930 1280 936 1344 939C1408 942 1472 942 1536 943.7C1600 945.3 1664 948.7 1728 957.3C1792 966 1856 980 1888 987L1920 994L1920 1081L1888 1081C1856 1081 1792 1081 1728 1081C1664 1081 1600 1081 1536 1081C1472 1081 1408 1081 1344 1081C1280 1081 1216 1081 1152 1081C1088 1081 1024 1081 960 1081C896 1081 832 1081 768 1081C704 1081 640 1081 576 1081C512 1081 448 1081 384 1081C320 1081 256 1081 192 1081C128 1081 64 1081 32 1081L0 1081Z" fill="#0092ff"></path><path d="M0 1027L32 1026C64 1025 128 1023 192 1012.5C256 1002 320 983 384 983.2C448 983.3 512 1002.7 576 1014.3C640 1026 704 1030 768 1021C832 1012 896 990 960 977.3C1024 964.7 1088 961.3 1152 972.3C1216 983.3 1280 1008.7 1344 1020.2C1408 1031.7 1472 1029.3 1536 1029.5C1600 1029.7 1664 1032.3 1728 1018.7C1792 1005 1856 975 1888 960L1920 945L1920 1081L1888 1081C1856 1081 1792 1081 1728 1081C1664 1081 1600 1081 1536 1081C1472 1081 1408 1081 1344 1081C1280 1081 1216 1081 1152 1081C1088 1081 1024 1081 960 1081C896 1081 832 1081 768 1081C704 1081 640 1081 576 1081C512 1081 448 1081 384 1081C320 1081 256 1081 192 1081C128 1081 64 1081 32 1081L0 1081Z" fill="#008bff"></path></svg>