<svg id="visual" viewBox="0 0 900 600" width="900" height="600" xmlns="http://www.w3.org/2000/svg" xmlns:xlink="http://www.w3.org/1999/xlink" version="1.1"><g stroke-width="1" stroke-linejoin="bevel"><path d="M496 273L572 307L568 178Z" fill="#a6defa" stroke="#a6defa"></path><path d="M568 178L527 166L496 273Z" fill="#52a6e2" stroke="#52a6e2"></path><path d="M569 97L513 116L527 166Z" fill="#308ed8" stroke="#308ed8"></path><path d="M527 166L396 215L496 273Z" fill="#1e83d3" stroke="#1e83d3"></path><path d="M572 307L688 205L568 178Z" fill="#83c8f0" stroke="#83c8f0"></path><path d="M568 178L569 97L527 166Z" fill="#73bcec" stroke="#73bcec"></path><path d="M688 205L569 97L568 178Z" fill="#308ed8" stroke="#308ed8"></path><path d="M572 307L706 291L688 205Z" fill="#73bcec" stroke="#73bcec"></path><path d="M513 116L396 215L527 166Z" fill="#62b1e7" stroke="#62b1e7"></path><path d="M572 307L660 375L706 291Z" fill="#83c8f0" stroke="#83c8f0"></path><path d="M576 424L660 375L572 307Z" fill="#419ade" stroke="#419ade"></path><path d="M576 424L572 307L528 438Z" fill="#419ade" stroke="#419ade"></path><path d="M528 438L572 307L496 273Z" fill="#1e83d3" stroke="#1e83d3"></path><path d="M389 396L528 438L496 273Z" fill="#1e83d3" stroke="#1e83d3"></path><path d="M396 215L361 321L496 273Z" fill="#52a6e2" stroke="#52a6e2"></path><path d="M361 321L389 396L496 273Z" fill="#419ade" stroke="#419ade"></path><path d="M388 82L334 194L396 215Z" fill="#52a6e2" stroke="#52a6e2"></path><path d="M396 215L334 194L361 321Z" fill="#419ade" stroke="#419ade"></path><path d="M423 0L388 82L513 116Z" fill="#1e83d3" stroke="#1e83d3"></path><path d="M513 116L388 82L396 215Z" fill="#83c8f0" stroke="#83c8f0"></path><path d="M389 396L507 473L528 438Z" fill="#0677cd" stroke="#0677cd"></path><path d="M528 438L606 476L576 424Z" fill="#62b1e7" stroke="#62b1e7"></path><path d="M576 424L606 476L660 375Z" fill="#b8e9ff" stroke="#b8e9ff"></path><path d="M507 473L606 476L528 438Z" fill="#308ed8" stroke="#308ed8"></path><path d="M839 310L818 194L706 291Z" fill="#308ed8" stroke="#308ed8"></path><path d="M782 86L719 68L688 205Z" fill="#0677cd" stroke="#0677cd"></path><path d="M688 205L719 68L569 97Z" fill="#62b1e7" stroke="#62b1e7"></path><path d="M569 97L521 0L513 116Z" fill="#0677cd" stroke="#0677cd"></path><path d="M637 0L521 0L569 97Z" fill="#419ade" stroke="#419ade"></path><path d="M719 68L637 0L569 97Z" fill="#b8e9ff" stroke="#b8e9ff"></path><path d="M839 310L706 291L839 437Z" fill="#52a6e2" stroke="#52a6e2"></path><path d="M706 291L818 194L688 205Z" fill="#1e83d3" stroke="#1e83d3"></path><path d="M818 194L782 86L688 205Z" fill="#308ed8" stroke="#308ed8"></path><path d="M719 68L690 0L637 0Z" fill="#419ade" stroke="#419ade"></path><path d="M521 0L423 0L513 116Z" fill="#308ed8" stroke="#308ed8"></path><path d="M388 82L336 66L334 194Z" fill="#a6defa" stroke="#a6defa"></path><path d="M810 0L690 0L719 68Z" fill="#52a6e2" stroke="#52a6e2"></path><path d="M423 0L336 66L388 82Z" fill="#83c8f0" stroke="#83c8f0"></path><path d="M334 194L272 293L361 321Z" fill="#308ed8" stroke="#308ed8"></path><path d="M361 321L282 402L389 396Z" fill="#308ed8" stroke="#308ed8"></path><path d="M230 290L272 293L208 204Z" fill="#419ade" stroke="#419ade"></path><path d="M839 437L706 291L660 375Z" fill="#83c8f0" stroke="#83c8f0"></path><path d="M389 396L396 493L507 473Z" fill="#83c8f0" stroke="#83c8f0"></path><path d="M628 600L695 513L606 476Z" fill="#73bcec" stroke="#73bcec"></path><path d="M282 402L396 493L389 396Z" fill="#308ed8" stroke="#308ed8"></path><path d="M534 600L606 476L507 473Z" fill="#a6defa" stroke="#a6defa"></path><path d="M606 476L695 513L660 375Z" fill="#0677cd" stroke="#0677cd"></path><path d="M272 293L282 402L361 321Z" fill="#a6defa" stroke="#a6defa"></path><path d="M208 204L272 293L334 194Z" fill="#308ed8" stroke="#308ed8"></path><path d="M272 293L217 382L282 402Z" fill="#419ade" stroke="#419ade"></path><path d="M695 513L839 437L660 375Z" fill="#308ed8" stroke="#308ed8"></path><path d="M900 336L900 231L839 310Z" fill="#308ed8" stroke="#308ed8"></path><path d="M839 310L900 231L818 194Z" fill="#52a6e2" stroke="#52a6e2"></path><path d="M818 194L900 92L782 86Z" fill="#95d3f5" stroke="#95d3f5"></path><path d="M217 104L208 204L334 194Z" fill="#62b1e7" stroke="#62b1e7"></path><path d="M900 92L810 0L782 86Z" fill="#419ade" stroke="#419ade"></path><path d="M782 86L810 0L719 68Z" fill="#419ade" stroke="#419ade"></path><path d="M900 373L900 336L839 310Z" fill="#b8e9ff" stroke="#b8e9ff"></path><path d="M422 600L534 600L507 473Z" fill="#308ed8" stroke="#308ed8"></path><path d="M695 513L819 508L839 437Z" fill="#73bcec" stroke="#73bcec"></path><path d="M423 0L291 0L336 66Z" fill="#62b1e7" stroke="#62b1e7"></path><path d="M336 66L217 104L334 194Z" fill="#419ade" stroke="#419ade"></path><path d="M534 600L628 600L606 476Z" fill="#1e83d3" stroke="#1e83d3"></path><path d="M291 0L217 104L336 66Z" fill="#b8e9ff" stroke="#b8e9ff"></path><path d="M115 265L217 382L230 290Z" fill="#83c8f0" stroke="#83c8f0"></path><path d="M230 290L217 382L272 293Z" fill="#52a6e2" stroke="#52a6e2"></path><path d="M270 600L422 600L396 493Z" fill="#0677cd" stroke="#0677cd"></path><path d="M396 493L422 600L507 473Z" fill="#b8e9ff" stroke="#b8e9ff"></path><path d="M839 437L900 373L839 310Z" fill="#83c8f0" stroke="#83c8f0"></path><path d="M761 600L819 508L695 513Z" fill="#62b1e7" stroke="#62b1e7"></path><path d="M839 437L900 535L900 373Z" fill="#52a6e2" stroke="#52a6e2"></path><path d="M628 600L672 600L695 513Z" fill="#73bcec" stroke="#73bcec"></path><path d="M900 231L900 92L818 194Z" fill="#b8e9ff" stroke="#b8e9ff"></path><path d="M263 511L396 493L282 402Z" fill="#a6defa" stroke="#a6defa"></path><path d="M217 382L263 511L282 402Z" fill="#b8e9ff" stroke="#b8e9ff"></path><path d="M672 600L761 600L695 513Z" fill="#b8e9ff" stroke="#b8e9ff"></path><path d="M900 92L900 0L810 0Z" fill="#308ed8" stroke="#308ed8"></path><path d="M217 104L127 186L208 204Z" fill="#419ade" stroke="#419ade"></path><path d="M208 204L115 265L230 290Z" fill="#52a6e2" stroke="#52a6e2"></path><path d="M217 382L197 526L263 511Z" fill="#52a6e2" stroke="#52a6e2"></path><path d="M105 64L127 186L217 104Z" fill="#73bcec" stroke="#73bcec"></path><path d="M291 0L198 0L217 104Z" fill="#0677cd" stroke="#0677cd"></path><path d="M127 186L115 265L208 204Z" fill="#b8e9ff" stroke="#b8e9ff"></path><path d="M900 600L900 535L819 508Z" fill="#73bcec" stroke="#73bcec"></path><path d="M819 508L900 535L839 437Z" fill="#a6defa" stroke="#a6defa"></path><path d="M117 479L197 526L217 382Z" fill="#1e83d3" stroke="#1e83d3"></path><path d="M263 511L270 600L396 493Z" fill="#308ed8" stroke="#308ed8"></path><path d="M229 600L270 600L263 511Z" fill="#0677cd" stroke="#0677cd"></path><path d="M197 526L229 600L263 511Z" fill="#73bcec" stroke="#73bcec"></path><path d="M198 0L105 64L217 104Z" fill="#52a6e2" stroke="#52a6e2"></path><path d="M127 186L0 232L115 265Z" fill="#0677cd" stroke="#0677cd"></path><path d="M198 0L136 0L105 64Z" fill="#73bcec" stroke="#73bcec"></path><path d="M761 600L900 600L819 508Z" fill="#308ed8" stroke="#308ed8"></path><path d="M84 433L117 479L217 382Z" fill="#52a6e2" stroke="#52a6e2"></path><path d="M197 526L124 600L229 600Z" fill="#62b1e7" stroke="#62b1e7"></path><path d="M84 433L217 382L115 265Z" fill="#95d3f5" stroke="#95d3f5"></path><path d="M0 288L84 433L115 265Z" fill="#95d3f5" stroke="#95d3f5"></path><path d="M0 114L127 186L105 64Z" fill="#419ade" stroke="#419ade"></path><path d="M0 114L0 232L127 186Z" fill="#73bcec" stroke="#73bcec"></path><path d="M0 232L0 288L115 265Z" fill="#83c8f0" stroke="#83c8f0"></path><path d="M117 479L124 600L197 526Z" fill="#1e83d3" stroke="#1e83d3"></path><path d="M0 600L124 600L117 479Z" fill="#95d3f5" stroke="#95d3f5"></path><path d="M0 485L117 479L84 433Z" fill="#73bcec" stroke="#73bcec"></path><path d="M0 0L0 114L105 64Z" fill="#419ade" stroke="#419ade"></path><path d="M0 288L0 438L84 433Z" fill="#a6defa" stroke="#a6defa"></path><path d="M0 438L0 485L84 433Z" fill="#308ed8" stroke="#308ed8"></path><path d="M136 0L0 0L105 64Z" fill="#308ed8" stroke="#308ed8"></path><path d="M0 485L0 600L117 479Z" fill="#95d3f5" stroke="#95d3f5"></path></g></svg>